<svg xmlns="http://www.w3.org/2000/svg" xmlns:xlink="http://www.w3.org/1999/xlink" fill="none" version="1.1" width="24" height="24" viewBox="0 0 24 24"><g><g><path d="M5.49342,10.492C5.568087,10.414670000000001,5.85342,10.084,6.11742,9.812000000000001C7.67075,8.10133,11.72275,5.30133,13.84409,4.446667C14.16675,4.309333,14.98142,4.0186667,15.4161,4C15.8334,4,16.2294,4.096,16.6094,4.290667C17.0828,4.562667,17.4628,4.990667,17.6694,5.496C17.802799999999998,5.84667,18.0108,6.896,18.0108,6.91467C18.2188,8.06267,18.333399999999997,9.928,18.333399999999997,11.989329999999999C18.333399999999997,13.95333,18.2188,15.7427,18.0494,16.908C18.029400000000003,16.9267,17.8228,18.2307,17.5948,18.677300000000002C17.1976,19.4785,16.384900000000002,19.9894,15.4908,20L15.4161,20C14.84809,19.98,13.65475,19.473300000000002,13.65475,19.454700000000003C11.64809,18.5987,7.68942,15.936,6.09742,14.1667C6.09742,14.1667,5.64942,13.712,5.454753,13.428C5.155119,13.01604,4.99573477,12.51872,5.0000868117,12.00933C5.0000868117,11.44533,5.170753,10.92,5.49342,10.492Z" fill-rule="evenodd" fill="#3B3B3B" fill-opacity="1"/></g></g></svg>