<svg xmlns="http://www.w3.org/2000/svg" xmlns:xlink="http://www.w3.org/1999/xlink" fill="none" version="1.1" width="375" height="115" viewBox="0 0 375 115"><g><g><g><path d="M25.49342,79.492C25.568087,79.41467,25.85342,79.084,26.11742,78.812C27.670749999999998,77.10133,31.722749999999998,74.30133000000001,33.84409,73.446667C34.16675,73.309333,34.98142,73.0186667,35.4161,73C35.8334,73,36.2294,73.096,36.6094,73.290667C37.0828,73.562667,37.4628,73.990667,37.669399999999996,74.496C37.8028,74.84667,38.0108,75.896,38.0108,75.91467C38.2188,77.06267,38.3334,78.928,38.3334,80.98933C38.3334,82.95333,38.2188,84.7427,38.0494,85.908C38.0294,85.9267,37.8228,87.2307,37.5948,87.6773C37.1976,88.4785,36.3849,88.9894,35.4908,89L35.4161,89C34.84809,88.98,33.65475,88.4733,33.65475,88.4547C31.64809,87.5987,27.68942,84.936,26.09742,83.1667C26.09742,83.1667,25.64942,82.712,25.454753,82.428C25.155119,82.01604,24.99573477,81.51872,25.0000868117,81.00933C25.0000868117,80.44533,25.170753,79.92,25.49342,79.492Z" fill-rule="evenodd" fill="#3B3B3B" fill-opacity="1"/></g></g><g><path d="M49.3125,76.00586L52.28613,76.00586Q54.2207,76.00586,55.20508,76.56641Q56.18945,77.12695,56.18945,78.50098Q56.18945,79.0752,55.987790000000004,79.53662Q55.78613,79.99805,55.40332,80.29541Q55.02051,80.59277,54.45996,80.69531L54.45996,80.76367Q55.04102,80.86621,55.49561,81.126Q55.9502,81.3857,56.21338,81.8711Q56.47656,82.35640000000001,56.47656,83.1289Q56.47656,84.0449,56.04248,84.6875Q55.6084,85.3301,54.80518,85.66499999999999Q54.00195,86,52.90137,86L49.3125,86L49.3125,76.00586ZM50.95312,80.12792999999999L52.52539,80.12792999999999Q53.63965,80.12792999999999,54.07031,79.76562Q54.50098,79.40332000000001,54.50098,78.70605Q54.50098,77.99512,53.9917,77.68066Q53.48242,77.36621,52.375,77.36621L50.95312,77.36621L50.95312,80.12792999999999ZM50.95312,81.4541L50.95312,84.626L52.68262,84.626Q53.83105,84.626,54.2959,84.1816Q54.76074,83.7373,54.76074,82.9785Q54.76074,82.5137,54.55225,82.1719Q54.34375,81.8301,53.87207,81.6421Q53.40039,81.4541,52.60059,81.4541L50.95312,81.4541ZM63.3438,78.28906Q64.7793,78.28906,65.5142,78.9248Q66.249,79.56055,66.249,80.90723L66.249,86L65.1074,86L64.7998,84.9268L64.74510000000001,84.9268Q64.4238,85.3369,64.082,85.6035Q63.7402,85.87010000000001,63.292500000000004,86.0034Q62.8447,86.1367,62.2021,86.1367Q61.5254,86.1367,60.9922,85.8872Q60.459,85.6377,60.1514,85.125Q59.8438,84.6123,59.8438,83.8262Q59.8438,82.6572,60.7153,82.0693Q61.5869,81.48140000000001,63.3506,81.4199L64.6631,81.3721L64.6631,80.97559Q64.6631,80.18945,64.2974,79.85449Q63.9316,79.51953,63.2686,79.51953Q62.7012,79.51953,62.168,79.68359Q61.6348,79.84766,61.1289,80.08691L60.6094,78.95215Q61.1631,78.6582,61.870599999999996,78.47363Q62.5781,78.28906,63.3438,78.28906ZM64.6562,82.38380000000001L63.6787,82.418Q62.4756,82.459,61.9902,82.8281Q61.5049,83.1973,61.5049,83.8398Q61.5049,84.4004,61.8398,84.6567Q62.1748,84.9131,62.7217,84.9131Q63.5557,84.9131,64.106,84.438Q64.6562,83.9629,64.6562,83.03999999999999L64.6562,82.38380000000001ZM73.5469,86.1367Q72.4736,86.1367,71.6875,85.7197Q70.9014,85.3027,70.47749999999999,84.4414Q70.05369999999999,83.5801,70.05369999999999,82.2539Q70.05369999999999,80.87305,70.51859999999999,79.99805Q70.9834,79.12305,71.80709999999999,78.70605Q72.6309,78.28906,73.6973,78.28906Q74.374,78.28906,74.9243,78.42236Q75.4746,78.55566,75.8574,78.74707L75.3789,80.03223Q74.9619,79.86133,74.5244,79.74512Q74.0869,79.62891,73.6836,79.62891Q73.0205,79.62891,72.5796,79.92285Q72.1387,80.2168,71.9233,80.79785Q71.708,81.3789,71.708,82.2402Q71.708,83.0742,71.9268,83.645Q72.1455,84.2158,72.5762,84.5063Q73.0068,84.7969,73.6357,84.7969Q74.2578,84.7969,74.75,84.6465Q75.2422,84.4961,75.6797,84.2568L75.6797,85.6514Q75.249,85.89750000000001,74.7568,86.0171Q74.2646,86.1367,73.5469,86.1367ZM81.0566,75.36328L81.0566,80.50391Q81.0566,80.85254,81.0293,81.2661Q81.00200000000001,81.6797,80.97460000000001,82.042L81.00880000000001,82.042Q81.1865,81.8027,81.436,81.48140000000001Q81.68549999999999,81.1602,81.9111,80.9209L84.2217,78.43262L86.06739999999999,78.43262L83.03909999999999,81.6865L86.2656,86L84.3789,86L81.959,82.6777L81.0566,83.4502L81.0566,86L79.4502,86L79.4502,75.36328L81.0566,75.36328Z" fill="#000000" fill-opacity="1"/></g><g><g><g style="opacity:0.3499999940395355;"><rect x="336.83331298828125" y="17.83333396911621" width="21" height="10.333333015441895" rx="2.1666667461395264" fill-opacity="0" stroke-opacity="0.3499999940395355" stroke="#000000" fill="none" stroke-width="1"/></g><g style="opacity:0.4000000059604645;"><path d="M359.33331298828125,21.000000715255737L359.33331298828125,25.000000715255737C360.13804398828125,24.661220715255737,360.66135298828124,23.873130715255737,360.66135298828124,23.000000715255737C360.66135298828124,22.126870715255738,360.13804398828125,21.338777715255738,359.33331298828125,21.000000715255737L359.33331298828125,21.000000715255737Z" fill="#000000" fill-opacity="1"/></g><g><rect x="338.33331298828125" y="19.33333384990692" width="18" height="7.333333492279053" rx="1.3333333730697632" fill="#000000" fill-opacity="1"/></g></g><g><path d="M323.66707,19.615153217773436C325.8918,19.615243217773436,328.0315,20.469363217773438,329.6438,22.000953217773436C329.7652,22.119193217773436,329.9593,22.11770321777344,330.0789,21.997603217773438L331.2395,20.82727321777344C331.3,20.76636321777344,331.3338,20.68385321777344,331.3333,20.59800321777344C331.3328,20.512153217773438,331.2981,20.430043217773438,331.2368,20.369843217773436C327.0049,16.317613217773438,320.32857,16.317613217773438,316.0966565,20.369843217773436C316.0353544,20.43000321777344,316.000572274,20.512083217773437,316.00000699859,20.597933217773438C315.999441723,20.68378321777344,316.0331399,20.766323217773436,316.0936446,20.82727321777344L317.25459,21.997603217773438C317.37409,22.11788321777344,317.56831,22.119373217773436,317.68965,22.000953217773436C319.30221,20.469263217773438,321.44212,19.615143217773436,323.66707,19.615153217773436ZM326.97429999999997,24.696583217773437C326.0682,23.87681321777344,324.88946,23.42286321777344,323.66711,23.422933217773437C322.44558,23.42344321777344,321.26779,23.87735321777344,320.36232,24.696583217773437C320.23977,24.812933217773438,320.04672,24.810413217773437,319.92725,24.69090321777344L318.76832,23.52057321777344C318.70714,23.459273217773436,318.67315,23.376003217773437,318.67396,23.28944321777344C318.67478,23.202883217773437,318.71034,23.120263217773438,318.77267,23.060133217773437C321.53183,20.49572321777344,325.80474,20.49572321777344,328.5639,23.060133217773437C328.6262,23.120263217773438,328.66179999999997,23.20283321777344,328.6626,23.289373217773438C328.6635,23.375913217773437,328.6296,23.459183217773436,328.5686,23.52057321777344L327.4093,24.69090321777344C327.2899,24.810413217773437,327.0968,24.812933217773438,326.97429999999997,24.696583217773437ZM325.89492,26.21604321777344C325.95692,26.155253217773435,325.99106,26.071583217773437,325.98929,25.98480321777344C325.98751,25.89803321777344,325.94998,25.81582321777344,325.88555,25.75761321777344C324.60489,24.675343217773438,322.72924,24.675343217773438,321.44858,25.75761321777344C321.38411,25.815783217773436,321.34651,25.897953217773438,321.34468,25.98473321777344C321.34284,26.071513217773436,321.37692,26.155203217773437,321.43888,26.21604321777344L323.44452,28.23807321777344C323.5033,28.297473217773437,323.58344,28.330873217773437,323.66707,28.330873217773437C323.75069,28.330873217773437,323.83083,28.297473217773437,323.88962,28.23807321777344L325.89492,26.21604321777344Z" fill-rule="evenodd" fill="#000000" fill-opacity="1"/></g><g><path d="M309,17.666667938232422L310,17.666667938232422C310.5523,17.666667938232422,311,18.11438293823242,311,18.666667938232422L311,27.33333793823242C311,27.885667938232423,310.5523,28.33336793823242,310,28.33336793823242L309,28.33336793823242C308.4477,28.33336793823242,308,27.885667938232423,308,27.33333793823242L308,18.666667938232422C308,18.11438293823242,308.4477,17.666667938232422,309,17.666667938232422ZM304.3334,19.99991793823242L305.3334,19.99991793823242C305.8857,19.99991793823242,306.3334,20.447637938232422,306.3334,20.99991793823242L306.3334,27.33325793823242C306.3334,27.88556793823242,305.8857,28.333267938232424,305.3334,28.333267938232424L304.3334,28.333267938232424C303.78109,28.333267938232424,303.33337,27.88556793823242,303.33337,27.33325793823242L303.33337,20.99991793823242C303.33337,20.447637938232422,303.78109,19.99991793823242,304.3334,19.99991793823242ZM299.66663,22.33316793823242L300.66663,22.33316793823242C301.21891,22.33316793823242,301.66663,22.78088793823242,301.66663,23.33316793823242L301.66663,27.33316793823242C301.66663,27.885467938232424,301.21891,28.33316793823242,300.66663,28.33316793823242L299.66663,28.33316793823242C299.11434,28.33316793823242,298.66663,27.885467938232424,298.66663,27.33316793823242L298.66663,23.33316793823242C298.66663,22.78088793823242,299.11434,22.33316793823242,299.66663,22.33316793823242ZM295,24.33316793823242L296,24.33316793823242C296.55228,24.33316793823242,297,24.78088793823242,297,25.33316793823242L297,27.33316793823242C297,27.885467938232424,296.55228,28.33316793823242,296,28.33316793823242L295,28.33316793823242C294.447715,28.33316793823242,294,27.885467938232424,294,27.33316793823242L294,25.33316793823242C294,24.78088793823242,294.447715,24.33316793823242,295,24.33316793823242Z" fill-rule="evenodd" fill="#000000" fill-opacity="1"/></g><g><g><path d="M41.370000000000005,23.19830011367798Q41.370000000000005,24.11330011367798,41.2425,25.02080011367798Q41.114999999999995,25.928300113677977,40.8,26.73080011367798Q40.485,27.533300113677978,39.93,28.155800113677977Q39.375,28.77830011367798,38.519999999999996,29.130800113677978Q37.665,29.483300113677977,36.45,29.483300113677977Q36.15,29.483300113677977,35.7525,29.44580011367798Q35.355000000000004,29.408300113677978,35.1,29.33330011367798L35.1,28.20830011367798Q35.37,28.29830011367798,35.730000000000004,28.350800113677977Q36.09,28.40330011367798,36.42,28.40330011367798Q37.47,28.40330011367798,38.1525,28.05830011367798Q38.835,27.71330011367798,39.239999999999995,27.12080011367798Q39.644999999999996,26.52830011367798,39.825,25.740800113677977Q40.004999999999995,24.953300113677976,40.035,24.08330011367798L39.945,24.08330011367798Q39.72,24.428300113677977,39.375,24.71330011367798Q39.03,24.998300113677978,38.542500000000004,25.163300113677977Q38.055,25.328300113677976,37.394999999999996,25.328300113677976Q36.480000000000004,25.328300113677976,35.7825,24.94580011367798Q35.085,24.56330011367798,34.7025,23.843300113677977Q34.32,23.123300113677978,34.32,22.088300113677978Q34.32,20.963300113677978,34.7475,20.15330011367798Q35.175,19.343300113677977,35.94,18.908300113677978Q36.705,18.47330011367798,37.739999999999995,18.47330011367798Q38.504999999999995,18.47330011367798,39.165,18.76580011367798Q39.825,19.05830011367798,40.32,19.643300113677977Q40.815,20.228300113677978,41.0925,21.11330011367798Q41.370000000000005,21.998300113677978,41.370000000000005,23.19830011367798ZM37.739999999999995,19.58330011367798Q36.81,19.58330011367798,36.2175,20.19830011367798Q35.625,20.81330011367798,35.625,22.07330011367798Q35.625,23.108300113677977,36.1275,23.70080011367798Q36.63,24.29330011367798,37.68,24.29330011367798Q38.4,24.29330011367798,38.925,24.00080011367798Q39.45,23.70830011367798,39.7425,23.25830011367798Q40.035,22.80830011367798,40.035,22.32830011367798Q40.035,21.84830011367798,39.8925,21.36080011367798Q39.75,20.873300113677978,39.465,20.468300113677977Q39.18,20.06330011367798,38.745000000000005,19.82330011367798Q38.31,19.58330011367798,37.739999999999995,19.58330011367798ZM42.93,28.523300113677976Q42.93,27.968300113677977,43.2,27.74330011367798Q43.47,27.51830011367798,43.845,27.51830011367798Q44.235,27.51830011367798,44.5125,27.74330011367798Q44.79,27.968300113677977,44.79,28.523300113677976Q44.79,29.06330011367798,44.5125,29.303300113677977Q44.235,29.54330011367798,43.845,29.54330011367798Q43.47,29.54330011367798,43.2,29.303300113677977Q42.93,29.06330011367798,42.93,28.523300113677976ZM42.93,22.103300113677978Q42.93,21.533300113677978,43.2,21.30830011367798Q43.47,21.08330011367798,43.845,21.08330011367798Q44.235,21.08330011367798,44.5125,21.30830011367798Q44.79,21.533300113677978,44.79,22.103300113677978Q44.79,22.64330011367798,44.5125,22.88330011367798Q44.235,23.123300113677978,43.845,23.123300113677978Q43.47,23.123300113677978,43.2,22.88330011367798Q42.93,22.64330011367798,42.93,22.103300113677978ZM53.85,26.90330011367798L52.29,26.90330011367798L52.29,29.33330011367798L51.015,29.33330011367798L51.015,26.90330011367798L45.885000000000005,26.90330011367798L45.885000000000005,25.77830011367798L50.925,18.56330011367798L52.29,18.56330011367798L52.29,25.718300113677977L53.85,25.718300113677977L53.85,26.90330011367798ZM51.015,22.343300113677977Q51.015,21.95330011367798,51.0225,21.630800113677978Q51.03,21.30830011367798,51.045,21.02330011367798Q51.06,20.73830011367798,51.067499999999995,20.475800113677977Q51.075,20.213300113677978,51.09,19.97330011367798L51.03,19.97330011367798Q50.91,20.25830011367798,50.730000000000004,20.588300113677978Q50.55,20.91830011367798,50.385000000000005,21.143300113677977L47.175,25.718300113677977L51.015,25.718300113677977L51.015,22.343300113677977ZM59.175,29.33330011367798L57.885,29.33330011367798L57.885,21.84830011367798Q57.885,21.413300113677977,57.8925,21.11330011367798Q57.9,20.81330011367798,57.915,20.55080011367798Q57.93,20.288300113677977,57.945,20.00330011367798Q57.705,20.24330011367798,57.51,20.408300113677978Q57.315,20.57330011367798,57.015,20.82830011367798L55.875,21.75830011367798L55.185,20.873300113677978L58.08,18.623300113677978L59.175,18.623300113677978L59.175,29.33330011367798Z" fill="#000000" fill-opacity="1"/></g></g></g></g></svg>